<?xml version="1.0" encoding="UTF-8" standalone="no"?>
<!DOCTYPE svg PUBLIC "-//W3C//DTD SVG 1.1//EN"
 "http://www.w3.org/Graphics/SVG/1.1/DTD/svg11.dtd">
<!-- Generated by graphviz version 9.0.0 (0)
 -->
<!-- Title: dot Pages: 1 -->
<svg width="730pt" height="229pt"
 viewBox="14.40 14.40 715.90 214.15" xmlns="http://www.w3.org/2000/svg" xmlns:xlink="http://www.w3.org/1999/xlink">
<g id="graph0" class="graph" transform="scale(1 1) rotate(0) translate(18.4 210.15)">
<title>dot</title>
<polygon fill="white" stroke="none" points="-4,4 -4,-195.75 697.5,-195.75 697.5,4 -4,4"/>
<!-- revinfo -->
<g id="node1" class="node">
<title>revinfo</title>
<path fill="lightgrey" stroke="orange" d="M262.08,-149C262.08,-149 210.42,-149 210.42,-149 206.96,-149 203.5,-145.54 203.5,-142.08 203.5,-142.08 203.5,-135.17 203.5,-135.17 203.5,-131.71 206.96,-128.25 210.42,-128.25 210.42,-128.25 262.08,-128.25 262.08,-128.25 265.54,-128.25 269,-131.71 269,-135.17 269,-135.17 269,-142.08 269,-142.08 269,-145.54 265.54,-149 262.08,-149"/>
<text text-anchor="middle" x="236.25" y="-135.5" font-family="Helvetica,sans-Serif" font-size="10.00">revinfo/43</text>
</g>
<!-- revdate -->
<g id="node2" class="node">
<title>revdate</title>
<path fill="lightgrey" stroke="black" d="M61.58,-106.25C61.58,-106.25 6.92,-106.25 6.92,-106.25 3.46,-106.25 0,-102.79 0,-99.33 0,-99.33 0,-92.42 0,-92.42 0,-88.96 3.46,-85.5 6.92,-85.5 6.92,-85.5 61.58,-85.5 61.58,-85.5 65.04,-85.5 68.5,-88.96 68.5,-92.42 68.5,-92.42 68.5,-99.33 68.5,-99.33 68.5,-102.79 65.04,-106.25 61.58,-106.25"/>
<text text-anchor="middle" x="34.25" y="-92.75" font-family="Helvetica,sans-Serif" font-size="10.00">revdate/10</text>
</g>
<!-- revinfo&#45;&gt;revdate -->
<g id="edge1" class="edge">
<title>revinfo&#45;&gt;revdate</title>
<path fill="none" stroke="#999999" d="M203.16,-131.83C172.49,-126.33 125.31,-117.6 79.82,-107.87"/>
<polygon fill="#999999" stroke="#999999" points="80.61,-104.45 70.09,-105.76 79.13,-111.3 80.61,-104.45"/>
</g>
<!-- revnumber -->
<g id="node14" class="node">
<title>revnumber</title>
<path fill="lightgrey" stroke="black" d="M229.46,-106.25C229.46,-106.25 165.04,-106.25 165.04,-106.25 161.58,-106.25 158.12,-102.79 158.12,-99.33 158.12,-99.33 158.12,-92.42 158.12,-92.42 158.12,-88.96 161.58,-85.5 165.04,-85.5 165.04,-85.5 229.46,-85.5 229.46,-85.5 232.92,-85.5 236.38,-88.96 236.38,-92.42 236.38,-92.42 236.38,-99.33 236.38,-99.33 236.38,-102.79 232.92,-106.25 229.46,-106.25"/>
<text text-anchor="middle" x="197.25" y="-92.75" font-family="Helvetica,sans-Serif" font-size="10.00">revnumber/4</text>
</g>
<!-- revinfo&#45;&gt;revnumber -->
<g id="edge9" class="edge">
<title>revinfo&#45;&gt;revnumber</title>
<path fill="none" stroke="#999999" d="M226.81,-127.76C223.07,-123.86 218.66,-119.24 214.39,-114.79"/>
<polygon fill="#999999" stroke="#999999" points="217.09,-112.55 207.65,-107.74 212.04,-117.39 217.09,-112.55"/>
</g>
<!-- crlf -->
<g id="node15" class="node">
<title>crlf</title>
<path fill="lightgrey" stroke="black" d="M537.71,-63.5C537.71,-63.5 510.79,-63.5 510.79,-63.5 507.33,-63.5 503.88,-60.04 503.88,-56.58 503.88,-56.58 503.88,-49.67 503.88,-49.67 503.88,-46.21 507.33,-42.75 510.79,-42.75 510.79,-42.75 537.71,-42.75 537.71,-42.75 541.17,-42.75 544.62,-46.21 544.62,-49.67 544.62,-49.67 544.62,-56.58 544.62,-56.58 544.62,-60.04 541.17,-63.5 537.71,-63.5"/>
<text text-anchor="middle" x="524.25" y="-50" font-family="Helvetica,sans-Serif" font-size="10.00">crlf/4</text>
</g>
<!-- revinfo&#45;&gt;crlf -->
<g id="edge24" class="edge">
<title>revinfo&#45;&gt;crlf</title>
<path fill="none" stroke="#999999" d="M269.27,-132.72C326.77,-124.15 439.37,-107.29 441.25,-106.25 451.94,-100.35 449.55,-92.92 459.25,-85.5 465.16,-80.98 479.57,-73.9 493.32,-67.61"/>
<polygon fill="#999999" stroke="#999999" points="494.49,-70.93 502.18,-63.63 491.63,-64.54 494.49,-70.93"/>
</g>
<!-- Space -->
<g id="node21" class="node">
<title>Space</title>
<path fill="lightgrey" stroke="black" d="M281.96,-106.25C281.96,-106.25 250.54,-106.25 250.54,-106.25 247.08,-106.25 243.62,-102.79 243.62,-99.33 243.62,-99.33 243.62,-92.42 243.62,-92.42 243.62,-88.96 247.08,-85.5 250.54,-85.5 250.54,-85.5 281.96,-85.5 281.96,-85.5 285.42,-85.5 288.88,-88.96 288.88,-92.42 288.88,-92.42 288.88,-99.33 288.88,-99.33 288.88,-102.79 285.42,-106.25 281.96,-106.25"/>
<text text-anchor="middle" x="266.25" y="-92.75" font-family="Helvetica,sans-Serif" font-size="10.00">Space</text>
</g>
<!-- revinfo&#45;&gt;Space -->
<g id="edge22" class="edge">
<title>revinfo&#45;&gt;Space</title>
<path fill="none" stroke="#999999" d="M243.51,-127.76C246.17,-124.16 249.26,-119.95 252.3,-115.82"/>
<polygon fill="#999999" stroke="#999999" points="255.05,-118 258.16,-107.87 249.41,-113.85 255.05,-118"/>
</g>
<!-- revremark -->
<g id="node22" class="node">
<title>revremark</title>
<path fill="lightgrey" stroke="black" d="M144.33,-106.25C144.33,-106.25 82.17,-106.25 82.17,-106.25 78.71,-106.25 75.25,-102.79 75.25,-99.33 75.25,-99.33 75.25,-92.42 75.25,-92.42 75.25,-88.96 78.71,-85.5 82.17,-85.5 82.17,-85.5 144.33,-85.5 144.33,-85.5 147.79,-85.5 151.25,-88.96 151.25,-92.42 151.25,-92.42 151.25,-99.33 151.25,-99.33 151.25,-102.79 147.79,-106.25 144.33,-106.25"/>
<text text-anchor="middle" x="113.25" y="-92.75" font-family="Helvetica,sans-Serif" font-size="10.00">revremark/4</text>
</g>
<!-- revinfo&#45;&gt;revremark -->
<g id="edge28" class="edge">
<title>revinfo&#45;&gt;revremark</title>
<path fill="none" stroke="#999999" d="M206.48,-127.76C190.61,-122.5 170.87,-115.96 153.64,-110.26"/>
<polygon fill="#999999" stroke="#999999" points="154.78,-106.95 144.19,-107.12 152.58,-113.59 154.78,-106.95"/>
</g>
<!-- Digit -->
<g id="node3" class="node">
<title>Digit</title>
<path fill="lightgrey" stroke="black" d="M124.96,-63.5C124.96,-63.5 99.54,-63.5 99.54,-63.5 96.08,-63.5 92.62,-60.04 92.62,-56.58 92.62,-56.58 92.62,-49.67 92.62,-49.67 92.62,-46.21 96.08,-42.75 99.54,-42.75 99.54,-42.75 124.96,-42.75 124.96,-42.75 128.42,-42.75 131.88,-46.21 131.88,-49.67 131.88,-49.67 131.88,-56.58 131.88,-56.58 131.88,-60.04 128.42,-63.5 124.96,-63.5"/>
<text text-anchor="middle" x="112.25" y="-50" font-family="Helvetica,sans-Serif" font-size="10.00">Digit</text>
</g>
<!-- revdate&#45;&gt;Digit -->
<g id="edge2" class="edge">
<title>revdate&#45;&gt;Digit</title>
<path fill="none" stroke="#999999" d="M53.13,-85.01C62.23,-80.26 73.35,-74.45 83.47,-69.16"/>
<polygon fill="#999999" stroke="#999999" points="84.96,-72.33 92.2,-64.6 81.72,-66.13 84.96,-72.33"/>
</g>
<!-- comment -->
<g id="node4" class="node">
<title>comment</title>
<path fill="lightgrey" stroke="orange" d="M629.08,-106.25C629.08,-106.25 565.42,-106.25 565.42,-106.25 561.96,-106.25 558.5,-102.79 558.5,-99.33 558.5,-99.33 558.5,-92.42 558.5,-92.42 558.5,-88.96 561.96,-85.5 565.42,-85.5 565.42,-85.5 629.08,-85.5 629.08,-85.5 632.54,-85.5 636,-88.96 636,-92.42 636,-92.42 636,-99.33 636,-99.33 636,-102.79 632.54,-106.25 629.08,-106.25"/>
<text text-anchor="middle" x="597.25" y="-92.75" font-family="Helvetica,sans-Serif" font-size="10.00">comment/20</text>
</g>
<!-- txt -->
<g id="node5" class="node">
<title>txt</title>
<path fill="lightgrey" stroke="black" d="M675.58,-63.5C675.58,-63.5 650.92,-63.5 650.92,-63.5 647.46,-63.5 644,-60.04 644,-56.58 644,-56.58 644,-49.67 644,-49.67 644,-46.21 647.46,-42.75 650.92,-42.75 650.92,-42.75 675.58,-42.75 675.58,-42.75 679.04,-42.75 682.5,-46.21 682.5,-49.67 682.5,-49.67 682.5,-56.58 682.5,-56.58 682.5,-60.04 679.04,-63.5 675.58,-63.5"/>
<text text-anchor="middle" x="663.25" y="-50" font-family="Helvetica,sans-Serif" font-size="10.00">txt/2</text>
</g>
<!-- comment&#45;&gt;txt -->
<g id="edge3" class="edge">
<title>comment&#45;&gt;txt</title>
<path fill="none" stroke="#999999" d="M613.23,-85.01C620.6,-80.46 629.54,-74.94 637.81,-69.83"/>
<polygon fill="#999999" stroke="#999999" points="639.46,-72.93 646.13,-64.69 635.78,-66.97 639.46,-72.93"/>
</g>
<!-- comment&#45;&gt;crlf -->
<g id="edge21" class="edge">
<title>comment&#45;&gt;crlf</title>
<path fill="none" stroke="#999999" d="M579.58,-85.01C571.24,-80.36 561.09,-74.69 551.78,-69.49"/>
<polygon fill="#999999" stroke="#999999" points="553.52,-66.45 543.08,-64.64 550.11,-72.57 553.52,-66.45"/>
</g>
<!-- noSlash -->
<g id="node19" class="node">
<title>noSlash</title>
<path fill="lightgrey" stroke="black" d="M624.96,-63.5C624.96,-63.5 569.54,-63.5 569.54,-63.5 566.08,-63.5 562.62,-60.04 562.62,-56.58 562.62,-56.58 562.62,-49.67 562.62,-49.67 562.62,-46.21 566.08,-42.75 569.54,-42.75 569.54,-42.75 624.96,-42.75 624.96,-42.75 628.42,-42.75 631.88,-46.21 631.88,-49.67 631.88,-49.67 631.88,-56.58 631.88,-56.58 631.88,-60.04 628.42,-63.5 624.96,-63.5"/>
<text text-anchor="middle" x="597.25" y="-50" font-family="Helvetica,sans-Serif" font-size="10.00">noSlash/10</text>
</g>
<!-- comment&#45;&gt;noSlash -->
<g id="edge18" class="edge">
<title>comment&#45;&gt;noSlash</title>
<path fill="none" stroke="#999999" d="M597.25,-85.01C597.25,-82.01 597.25,-78.58 597.25,-75.14"/>
<polygon fill="#999999" stroke="#999999" points="600.75,-75.41 597.25,-65.41 593.75,-75.41 600.75,-75.41"/>
</g>
<!-- author -->
<g id="node6" class="node">
<title>author</title>
<path fill="lightgrey" stroke="orange" d="M431.58,-106.25C431.58,-106.25 382.92,-106.25 382.92,-106.25 379.46,-106.25 376,-102.79 376,-99.33 376,-99.33 376,-92.42 376,-92.42 376,-88.96 379.46,-85.5 382.92,-85.5 382.92,-85.5 431.58,-85.5 431.58,-85.5 435.04,-85.5 438.5,-88.96 438.5,-92.42 438.5,-92.42 438.5,-99.33 438.5,-99.33 438.5,-102.79 435.04,-106.25 431.58,-106.25"/>
<text text-anchor="middle" x="407.25" y="-92.75" font-family="Helvetica,sans-Serif" font-size="10.00">author/15</text>
</g>
<!-- authorName -->
<g id="node7" class="node">
<title>authorName</title>
<path fill="lightgrey" stroke="black" d="M490.21,-63.5C490.21,-63.5 418.29,-63.5 418.29,-63.5 414.83,-63.5 411.38,-60.04 411.38,-56.58 411.38,-56.58 411.38,-49.67 411.38,-49.67 411.38,-46.21 414.83,-42.75 418.29,-42.75 418.29,-42.75 490.21,-42.75 490.21,-42.75 493.67,-42.75 497.12,-46.21 497.12,-49.67 497.12,-49.67 497.12,-56.58 497.12,-56.58 497.12,-60.04 493.67,-63.5 490.21,-63.5"/>
<text text-anchor="middle" x="454.25" y="-50" font-family="Helvetica,sans-Serif" font-size="10.00">authorName/2</text>
</g>
<!-- author&#45;&gt;authorName -->
<g id="edge4" class="edge">
<title>author&#45;&gt;authorName</title>
<path fill="none" stroke="#999999" d="M418.63,-85.01C423.36,-80.91 429,-76.02 434.38,-71.36"/>
<polygon fill="#999999" stroke="#999999" points="436.57,-74.09 441.83,-64.89 431.99,-68.8 436.57,-74.09"/>
</g>
<!-- authorEmail -->
<g id="node20" class="node">
<title>authorEmail</title>
<path fill="lightgrey" stroke="black" d="M397.46,-63.5C397.46,-63.5 327.04,-63.5 327.04,-63.5 323.58,-63.5 320.12,-60.04 320.12,-56.58 320.12,-56.58 320.12,-49.67 320.12,-49.67 320.12,-46.21 323.58,-42.75 327.04,-42.75 327.04,-42.75 397.46,-42.75 397.46,-42.75 400.92,-42.75 404.38,-46.21 404.38,-49.67 404.38,-49.67 404.38,-56.58 404.38,-56.58 404.38,-60.04 400.92,-63.5 397.46,-63.5"/>
<text text-anchor="middle" x="362.25" y="-50" font-family="Helvetica,sans-Serif" font-size="10.00">authorEmail/4</text>
</g>
<!-- author&#45;&gt;authorEmail -->
<g id="edge20" class="edge">
<title>author&#45;&gt;authorEmail</title>
<path fill="none" stroke="#999999" d="M396.36,-85.01C391.82,-80.91 386.43,-76.02 381.28,-71.36"/>
<polygon fill="#999999" stroke="#999999" points="383.93,-69.03 374.16,-64.91 379.23,-74.22 383.93,-69.03"/>
</g>
<!-- value -->
<g id="node8" class="node">
<title>value</title>
<path fill="lightgrey" stroke="black" d="M257.33,-63.5C257.33,-63.5 213.17,-63.5 213.17,-63.5 209.71,-63.5 206.25,-60.04 206.25,-56.58 206.25,-56.58 206.25,-49.67 206.25,-49.67 206.25,-46.21 209.71,-42.75 213.17,-42.75 213.17,-42.75 257.33,-42.75 257.33,-42.75 260.79,-42.75 264.25,-46.21 264.25,-49.67 264.25,-49.67 264.25,-56.58 264.25,-56.58 264.25,-60.04 260.79,-63.5 257.33,-63.5"/>
<text text-anchor="middle" x="235.25" y="-50" font-family="Helvetica,sans-Serif" font-size="10.00">value/10</text>
</g>
<!-- crlfcont -->
<g id="node9" class="node">
<title>crlfcont</title>
<path fill="lightgrey" stroke="black" d="M259.21,-20.75C259.21,-20.75 211.29,-20.75 211.29,-20.75 207.83,-20.75 204.38,-17.29 204.38,-13.83 204.38,-13.83 204.38,-6.92 204.38,-6.92 204.38,-3.46 207.83,0 211.29,0 211.29,0 259.21,0 259.21,0 262.67,0 266.12,-3.46 266.12,-6.92 266.12,-6.92 266.12,-13.83 266.12,-13.83 266.12,-17.29 262.67,-20.75 259.21,-20.75"/>
<text text-anchor="middle" x="235.25" y="-7.25" font-family="Helvetica,sans-Serif" font-size="10.00">crlfcont/6</text>
</g>
<!-- value&#45;&gt;crlfcont -->
<g id="edge5" class="edge">
<title>value&#45;&gt;crlfcont</title>
<path fill="none" stroke="#999999" d="M235.25,-42.26C235.25,-39.26 235.25,-35.83 235.25,-32.39"/>
<polygon fill="#999999" stroke="#999999" points="238.75,-32.66 235.25,-22.66 231.75,-32.66 238.75,-32.66"/>
</g>
<!-- attributes -->
<g id="node10" class="node">
<title>attributes</title>
<path fill="lightgrey" stroke="orange" d="M375.46,-149C375.46,-149 311.04,-149 311.04,-149 307.58,-149 304.12,-145.54 304.12,-142.08 304.12,-142.08 304.12,-135.17 304.12,-135.17 304.12,-131.71 307.58,-128.25 311.04,-128.25 311.04,-128.25 375.46,-128.25 375.46,-128.25 378.92,-128.25 382.38,-131.71 382.38,-135.17 382.38,-135.17 382.38,-142.08 382.38,-142.08 382.38,-145.54 378.92,-149 375.46,-149"/>
<text text-anchor="middle" x="343.25" y="-135.5" font-family="Helvetica,sans-Serif" font-size="10.00">attributes/28</text>
</g>
<!-- attribute -->
<g id="node11" class="node">
<title>attribute</title>
<path fill="lightgrey" stroke="orange" d="M361.83,-106.25C361.83,-106.25 302.67,-106.25 302.67,-106.25 299.21,-106.25 295.75,-102.79 295.75,-99.33 295.75,-99.33 295.75,-92.42 295.75,-92.42 295.75,-88.96 299.21,-85.5 302.67,-85.5 302.67,-85.5 361.83,-85.5 361.83,-85.5 365.29,-85.5 368.75,-88.96 368.75,-92.42 368.75,-92.42 368.75,-99.33 368.75,-99.33 368.75,-102.79 365.29,-106.25 361.83,-106.25"/>
<text text-anchor="middle" x="332.25" y="-92.75" font-family="Helvetica,sans-Serif" font-size="10.00">attribute/24</text>
</g>
<!-- attributes&#45;&gt;attribute -->
<g id="edge6" class="edge">
<title>attributes&#45;&gt;attribute</title>
<path fill="none" stroke="#999999" d="M340.59,-127.76C339.75,-124.66 338.79,-121.11 337.83,-117.54"/>
<polygon fill="#999999" stroke="#999999" points="341.27,-116.85 335.28,-108.11 334.51,-118.68 341.27,-116.85"/>
</g>
<!-- attribute&#45;&gt;value -->
<g id="edge12" class="edge">
<title>attribute&#45;&gt;value</title>
<path fill="none" stroke="#999999" d="M308.77,-85.01C296.85,-80.01 282.17,-73.83 269.06,-68.33"/>
<polygon fill="#999999" stroke="#999999" points="270.49,-65.13 259.91,-64.48 267.77,-71.58 270.49,-65.13"/>
</g>
<!-- attribute&#45;&gt;crlf -->
<g id="edge10" class="edge">
<title>attribute&#45;&gt;crlf</title>
<path fill="none" stroke="#999999" d="M368.85,-86.2C370,-85.96 371.13,-85.73 372.25,-85.5 425.17,-74.76 442.43,-78.4 492.54,-65.48"/>
<polygon fill="#999999" stroke="#999999" points="493.18,-68.93 501.93,-62.95 491.36,-62.17 493.18,-68.93"/>
</g>
<!-- key -->
<g id="node23" class="node">
<title>key</title>
<path fill="lightgrey" stroke="black" d="M306.46,-63.5C306.46,-63.5 278.04,-63.5 278.04,-63.5 274.58,-63.5 271.12,-60.04 271.12,-56.58 271.12,-56.58 271.12,-49.67 271.12,-49.67 271.12,-46.21 274.58,-42.75 278.04,-42.75 278.04,-42.75 306.46,-42.75 306.46,-42.75 309.92,-42.75 313.38,-46.21 313.38,-49.67 313.38,-49.67 313.38,-56.58 313.38,-56.58 313.38,-60.04 309.92,-63.5 306.46,-63.5"/>
<text text-anchor="middle" x="292.25" y="-50" font-family="Helvetica,sans-Serif" font-size="10.00">key/4</text>
</g>
<!-- attribute&#45;&gt;key -->
<g id="edge29" class="edge">
<title>attribute&#45;&gt;key</title>
<path fill="none" stroke="#999999" d="M322.57,-85.01C318.73,-81.11 314.21,-76.49 309.83,-72.04"/>
<polygon fill="#999999" stroke="#999999" points="312.41,-69.66 302.9,-64.98 307.41,-74.57 312.41,-69.66"/>
</g>
<!-- header -->
<g id="node12" class="node">
<title>header</title>
<path fill="lightgrey" stroke="orange" d="M496.71,-191.75C496.71,-191.75 445.79,-191.75 445.79,-191.75 442.33,-191.75 438.88,-188.29 438.88,-184.83 438.88,-184.83 438.88,-177.92 438.88,-177.92 438.88,-174.46 442.33,-171 445.79,-171 445.79,-171 496.71,-171 496.71,-171 500.17,-171 503.62,-174.46 503.62,-177.92 503.62,-177.92 503.62,-184.83 503.62,-184.83 503.62,-188.29 500.17,-191.75 496.71,-191.75"/>
<text text-anchor="middle" x="471.25" y="-178.25" font-family="Helvetica,sans-Serif" font-size="10.00">header/76</text>
</g>
<!-- header&#45;&gt;revinfo -->
<g id="edge7" class="edge">
<title>header&#45;&gt;revinfo</title>
<path fill="none" stroke="blue" d="M438.57,-174.71C397.42,-167.57 326.53,-155.28 280.53,-147.3"/>
<polygon fill="blue" stroke="blue" points="281.35,-143.89 270.9,-145.63 280.15,-150.79 281.35,-143.89"/>
</g>
<!-- header&#45;&gt;attributes -->
<g id="edge14" class="edge">
<title>header&#45;&gt;attributes</title>
<path fill="none" stroke="#999999" d="M440.26,-170.51C423.6,-165.2 402.82,-158.59 384.77,-152.84"/>
<polygon fill="#999999" stroke="#999999" points="385.98,-149.56 375.39,-149.86 383.86,-156.23 385.98,-149.56"/>
</g>
<!-- authors -->
<g id="node13" class="node">
<title>authors</title>
<path fill="lightgrey" stroke="orange" d="M476.21,-149C476.21,-149 422.29,-149 422.29,-149 418.83,-149 415.38,-145.54 415.38,-142.08 415.38,-142.08 415.38,-135.17 415.38,-135.17 415.38,-131.71 418.83,-128.25 422.29,-128.25 422.29,-128.25 476.21,-128.25 476.21,-128.25 479.67,-128.25 483.12,-131.71 483.12,-135.17 483.12,-135.17 483.12,-142.08 483.12,-142.08 483.12,-145.54 479.67,-149 476.21,-149"/>
<text text-anchor="middle" x="449.25" y="-135.5" font-family="Helvetica,sans-Serif" font-size="10.00">authors/41</text>
</g>
<!-- header&#45;&gt;authors -->
<g id="edge8" class="edge">
<title>header&#45;&gt;authors</title>
<path fill="none" stroke="blue" d="M465.92,-170.51C464.09,-167.11 461.96,-163.16 459.85,-159.26"/>
<polygon fill="blue" stroke="blue" points="463.08,-157.87 455.25,-150.73 456.92,-161.19 463.08,-157.87"/>
</g>
<!-- emptyorcomment -->
<g id="node16" class="node">
<title>emptyorcomment</title>
<path fill="lightgrey" stroke="orange" d="M616.71,-149C616.71,-149 511.79,-149 511.79,-149 508.33,-149 504.88,-145.54 504.88,-142.08 504.88,-142.08 504.88,-135.17 504.88,-135.17 504.88,-131.71 508.33,-128.25 511.79,-128.25 511.79,-128.25 616.71,-128.25 616.71,-128.25 620.17,-128.25 623.62,-131.71 623.62,-135.17 623.62,-135.17 623.62,-142.08 623.62,-142.08 623.62,-145.54 620.17,-149 616.71,-149"/>
<text text-anchor="middle" x="564.25" y="-135.5" font-family="Helvetica,sans-Serif" font-size="10.00">emptyorcomment/27</text>
</g>
<!-- header&#45;&gt;emptyorcomment -->
<g id="edge19" class="edge">
<title>header&#45;&gt;emptyorcomment</title>
<path fill="none" stroke="#999999" d="M493.76,-170.51C505.07,-165.56 518.99,-159.46 531.46,-153.99"/>
<polygon fill="#999999" stroke="#999999" points="532.8,-157.23 540.56,-150.01 529.99,-150.81 532.8,-157.23"/>
</g>
<!-- emptyLine -->
<g id="node17" class="node">
<title>emptyLine</title>
<path fill="lightgrey" stroke="black" d="M544.71,-106.25C544.71,-106.25 481.79,-106.25 481.79,-106.25 478.33,-106.25 474.88,-102.79 474.88,-99.33 474.88,-99.33 474.88,-92.42 474.88,-92.42 474.88,-88.96 478.33,-85.5 481.79,-85.5 481.79,-85.5 544.71,-85.5 544.71,-85.5 548.17,-85.5 551.62,-88.96 551.62,-92.42 551.62,-92.42 551.62,-99.33 551.62,-99.33 551.62,-102.79 548.17,-106.25 544.71,-106.25"/>
<text text-anchor="middle" x="513.25" y="-92.75" font-family="Helvetica,sans-Serif" font-size="10.00">emptyLine/5</text>
</g>
<!-- header&#45;&gt;emptyLine -->
<g id="edge26" class="edge">
<title>header&#45;&gt;emptyLine</title>
<path fill="none" stroke="#999999" d="M476.07,-170.8C482.68,-157.65 494.72,-133.72 503.31,-116.65"/>
<polygon fill="#999999" stroke="#999999" points="506.31,-118.46 507.68,-107.95 500.06,-115.31 506.31,-118.46"/>
</g>
<!-- title -->
<g id="node18" class="node">
<title>title</title>
<path fill="lightgrey" stroke="black" d="M686.58,-106.25C686.58,-106.25 649.92,-106.25 649.92,-106.25 646.46,-106.25 643,-102.79 643,-99.33 643,-99.33 643,-92.42 643,-92.42 643,-88.96 646.46,-85.5 649.92,-85.5 649.92,-85.5 686.58,-85.5 686.58,-85.5 690.04,-85.5 693.5,-88.96 693.5,-92.42 693.5,-92.42 693.5,-99.33 693.5,-99.33 693.5,-102.79 690.04,-106.25 686.58,-106.25"/>
<text text-anchor="middle" x="668.25" y="-92.75" font-family="Helvetica,sans-Serif" font-size="10.00">title/10</text>
</g>
<!-- header&#45;&gt;title -->
<g id="edge13" class="edge">
<title>header&#45;&gt;title</title>
<path fill="none" stroke="#999999" d="M504.1,-180.25C537.43,-178.7 589.36,-172.3 627.25,-149 640.03,-141.14 650.43,-127.77 657.55,-116.54"/>
<polygon fill="#999999" stroke="#999999" points="660.53,-118.38 662.59,-107.98 654.5,-114.83 660.53,-118.38"/>
</g>
<!-- authors&#45;&gt;author -->
<g id="edge15" class="edge">
<title>authors&#45;&gt;author</title>
<path fill="none" stroke="#999999" d="M439.08,-127.76C434.96,-123.76 430.06,-119.01 425.36,-114.45"/>
<polygon fill="#999999" stroke="#999999" points="428.02,-112.15 418.41,-107.7 423.15,-117.18 428.02,-112.15"/>
</g>
<!-- authors&#45;&gt;crlf -->
<g id="edge27" class="edge">
<title>authors&#45;&gt;crlf</title>
<path fill="none" stroke="#999999" d="M451.64,-127.8C454.8,-116.52 461.27,-97.97 472.25,-85.5 478.16,-78.79 485.86,-73.08 493.52,-68.44"/>
<polygon fill="#999999" stroke="#999999" points="495.03,-71.61 502.08,-63.71 491.64,-65.48 495.03,-71.61"/>
</g>
<!-- revnumber&#45;&gt;Digit -->
<g id="edge16" class="edge">
<title>revnumber&#45;&gt;Digit</title>
<path fill="none" stroke="#999999" d="M176.67,-85.01C166.47,-80.12 153.95,-74.12 142.67,-68.71"/>
<polygon fill="#999999" stroke="#999999" points="144.24,-65.58 133.71,-64.41 141.21,-71.89 144.24,-65.58"/>
</g>
<!-- emptyorcomment&#45;&gt;comment -->
<g id="edge23" class="edge">
<title>emptyorcomment&#45;&gt;comment</title>
<path fill="none" stroke="#999999" d="M572.24,-127.76C575.24,-124.06 578.75,-119.71 582.19,-115.48"/>
<polygon fill="#999999" stroke="#999999" points="584.81,-117.8 588.38,-107.82 579.37,-113.39 584.81,-117.8"/>
</g>
<!-- emptyorcomment&#45;&gt;emptyLine -->
<g id="edge11" class="edge">
<title>emptyorcomment&#45;&gt;emptyLine</title>
<path fill="none" stroke="#999999" d="M551.9,-127.76C546.64,-123.56 540.35,-118.53 534.39,-113.76"/>
<polygon fill="#999999" stroke="#999999" points="536.66,-111.1 526.66,-107.59 532.29,-116.57 536.66,-111.1"/>
</g>
<!-- emptyLine&#45;&gt;crlf -->
<g id="edge30" class="edge">
<title>emptyLine&#45;&gt;crlf</title>
<path fill="none" stroke="#999999" d="M515.91,-85.01C516.75,-81.91 517.71,-78.36 518.67,-74.79"/>
<polygon fill="#999999" stroke="#999999" points="521.99,-75.93 521.22,-65.36 515.23,-74.1 521.99,-75.93"/>
</g>
<!-- title&#45;&gt;txt -->
<g id="edge25" class="edge">
<title>title&#45;&gt;txt</title>
<path fill="none" stroke="#999999" d="M667.04,-85.01C666.67,-82.01 666.25,-78.58 665.83,-75.14"/>
<polygon fill="#999999" stroke="#999999" points="669.33,-74.9 664.63,-65.4 662.38,-75.75 669.33,-74.9"/>
</g>
<!-- title&#45;&gt;crlf -->
<g id="edge17" class="edge">
<title>title&#45;&gt;crlf</title>
<path fill="none" stroke="#999999" d="M642.65,-86.53C641.5,-86.18 640.37,-85.83 639.25,-85.5 631.19,-83.1 587.01,-71.1 555.82,-62.66"/>
<polygon fill="#999999" stroke="#999999" points="557.04,-59.36 546.47,-60.13 555.21,-66.12 557.04,-59.36"/>
</g>
</g>
</svg>
